<svg width="253" height="60" viewBox="0 0 253 60" fill="none" xmlns="http://www.w3.org/2000/svg">
<path d="M86.1207 49.3333C81.3064 49.3333 77.2945 47.7292 74.0849 44.5209C70.9176 41.3126 69.334 37.3445 69.334 32.6164C69.334 27.8884 70.9176 23.9203 74.0849 20.712C77.2945 17.5037 81.3064 15.8996 86.1207 15.8996C89.1613 15.8996 91.9485 16.6383 94.4824 18.1158C97.0585 19.5933 99.0433 21.5563 100.437 24.0047L92.1386 28.8172C90.9984 26.4532 88.9502 25.2712 85.994 25.2712C83.9247 25.2712 82.2144 25.9677 80.863 27.3608C79.5116 28.7116 78.8359 30.4635 78.8359 32.6164C78.8359 34.7694 79.5116 36.5424 80.863 37.9355C82.2144 39.2863 83.9247 39.9617 85.994 39.9617C88.9924 39.9617 91.0406 38.7797 92.1386 36.4157L100.437 41.1649C99.0433 43.6555 97.0796 45.6396 94.5457 47.1171C92.0119 48.5946 89.2035 49.3333 86.1207 49.3333Z" fill="white"/>
<path d="M118.07 48.9687C114.706 48.9687 111.67 48.2729 108.962 46.8811C106.255 45.4894 104.128 43.5564 102.581 41.0822C101.073 38.608 100.319 35.8052 100.319 32.6738C100.319 29.581 101.073 26.7975 102.581 24.3233C104.128 21.8491 106.236 19.9355 108.904 18.5824C111.612 17.1907 114.667 16.4948 118.07 16.4948C121.474 16.4948 124.529 17.1907 127.236 18.5824C129.943 19.9355 132.051 21.8491 133.559 24.3233C135.068 26.7589 135.822 29.5424 135.822 32.6738C135.822 35.8052 135.068 38.608 133.559 41.0822C132.051 43.5564 129.943 45.4894 127.236 46.8811C124.529 48.2729 121.474 48.9687 118.07 48.9687ZM118.07 40.2124C120.004 40.2124 121.59 39.5552 122.827 38.2407C124.065 36.8877 124.684 35.032 124.684 32.6738C124.684 30.3542 124.065 28.5372 122.827 27.2228C121.59 25.9084 120.004 25.2512 118.07 25.2512C116.137 25.2512 114.551 25.9084 113.313 27.2228C112.076 28.5372 111.457 30.3542 111.457 32.6738C111.457 35.032 112.076 36.8877 113.313 38.2407C114.551 39.5552 116.137 40.2124 118.07 40.2124Z" fill="white"/>
<path d="M158.957 16.4948C162.863 16.4948 165.996 17.6546 168.355 19.9741C170.753 22.2937 171.952 25.7924 171.952 30.4702V48.4468H160.93V32.2678C160.93 27.9766 159.209 25.831 155.767 25.831C153.872 25.831 152.344 26.4496 151.184 27.6867C150.062 28.9238 149.501 30.7795 149.501 33.2537V48.4468H138.479V17.0167H148.979V20.4381C150.217 19.1623 151.686 18.1958 153.388 17.5386C155.09 16.8427 156.946 16.4948 158.957 16.4948Z" fill="white"/>
<path d="M198.235 47.1711C197.306 47.751 196.166 48.1955 194.812 48.5048C193.497 48.8141 192.085 48.9687 190.577 48.9687C186.478 48.9687 183.326 47.9636 181.121 45.9533C178.917 43.943 177.814 40.9469 177.814 36.965V26.4109H173.232V18.1765H177.814V10H188.837V18.1765H196.03V26.4109H188.837V36.849C188.837 37.9701 189.127 38.8593 189.707 39.5165C190.326 40.135 191.138 40.4443 192.143 40.4443C193.42 40.4443 194.541 40.1157 195.508 39.4585L198.235 47.1711Z" fill="white"/>
<path d="M210.651 20.786C211.773 19.3556 213.223 18.2925 215.002 17.5966C216.82 16.8621 218.889 16.4948 221.209 16.4948V26.4109C220.204 26.295 219.372 26.237 218.715 26.237C216.356 26.237 214.499 26.8749 213.146 28.1506C211.831 29.4264 211.173 31.3787 211.173 34.0075V48.4468H200.151V17.0167H210.651V20.786Z" fill="white"/>
<path d="M236.598 16.4948C241.819 16.4948 245.803 17.6932 248.548 20.0901C251.294 22.4483 252.667 26.0823 252.667 30.9921V48.4468H242.399V44.3876C240.814 47.4417 237.72 48.9687 233.117 48.9687C230.681 48.9687 228.573 48.5435 226.794 47.693C225.015 46.8425 223.661 45.702 222.733 44.2716C221.844 42.8025 221.399 41.1402 221.399 39.2845C221.399 36.3078 222.54 34.0075 224.822 32.3838C227.103 30.7215 230.623 29.8903 235.38 29.8903H241.645C241.452 26.5656 239.228 24.9032 234.974 24.9032C233.465 24.9032 231.938 25.1545 230.391 25.6571C228.844 26.121 227.529 26.7782 226.446 27.6287L222.733 20.1481C224.474 18.9883 226.581 18.0992 229.057 17.4806C231.57 16.8234 234.084 16.4948 236.598 16.4948ZM236.192 42.01C237.468 42.01 238.59 41.7008 239.557 41.0822C240.524 40.4637 241.22 39.5552 241.645 38.3567V35.6312H236.888C233.678 35.6312 232.073 36.6944 232.073 38.8206C232.073 39.7871 232.441 40.5603 233.175 41.1402C233.91 41.7201 234.916 42.01 236.192 42.01Z" fill="white"/>
<circle cx="30" cy="30" r="30" fill="#FFBD12"/>
<path fill-rule="evenodd" clip-rule="evenodd" d="M14.4674 46.5881C18.5197 50.6405 23.6241 52.6667 29.7806 52.6667C33.5212 52.6667 36.9502 51.8094 40.0674 50.095C43.2235 48.3416 45.6978 45.9647 47.4902 42.9644L38.4308 37.7041C37.6515 39.1848 36.4826 40.3537 34.924 41.211C33.4043 42.0292 31.6899 42.4384 29.7806 42.4384C26.5075 42.4384 23.8579 41.4253 21.8317 39.3991C19.8445 37.3339 18.8509 34.6454 18.8509 31.3333C18.8509 28.0213 19.8445 25.3522 21.8317 23.326C23.8579 21.2609 26.5075 20.2283 29.7806 20.2283C31.6899 20.2283 33.4043 20.6569 34.924 21.5142C36.4826 22.3324 37.6515 23.4624 38.4308 24.9041L47.4902 19.7023C45.6978 16.7409 43.2235 14.3836 40.0674 12.6301C36.9112 10.8767 33.4823 10 29.7806 10C23.6241 10 18.5197 12.0457 14.4674 16.137C10.454 20.1893 8.44727 25.2548 8.44727 31.3333C8.44727 37.4119 10.454 42.4968 14.4674 46.5881ZM46.667 36C49.2443 36 51.3337 33.9107 51.3337 31.3333C51.3337 28.756 49.2443 26.6667 46.667 26.6667C44.0897 26.6667 42.0003 28.756 42.0003 31.3333C42.0003 33.9107 44.0897 36 46.667 36Z" fill="#18191F"/>
<path fill-rule="evenodd" clip-rule="evenodd" d="M35.5613 42.3821L35.5561 42.3849C33.8222 43.3186 31.8866 43.7717 29.7806 43.7717C26.2086 43.7717 23.2013 42.6543 20.8889 40.3419L20.8799 40.3328L20.871 40.3236C18.6075 37.9713 17.5176 34.9323 17.5176 31.3333C17.5176 27.7349 18.6074 24.7093 20.8798 22.3924C23.1906 20.0372 26.2009 18.895 29.7806 18.895C31.8901 18.895 33.8279 19.3692 35.5615 20.343C36.9022 21.0498 38.0112 21.9744 38.8665 23.1165L45.5992 19.2506C44.0144 17.0244 41.9605 15.2072 39.4198 13.7957C36.4669 12.1552 33.2617 11.3333 29.7806 11.3333C23.9527 11.3333 19.1981 13.2555 15.4147 17.0753C11.666 20.8604 9.7806 25.5806 9.7806 31.3333C9.7806 37.0838 11.6647 41.8248 15.4146 45.6498C19.1964 49.4293 23.951 51.3333 29.7806 51.3333C33.3074 51.3333 36.5127 50.5278 39.4221 48.9282C41.9665 47.5142 44.0239 45.6781 45.6108 43.4149L38.8774 39.5052C38.0231 40.6801 36.9129 41.6388 35.5665 42.3792L35.5613 42.3821ZM38.078 38.3117C37.3142 39.5082 36.2629 40.4746 34.924 41.211C33.4043 42.0292 31.6899 42.4384 29.7806 42.4384C26.5075 42.4384 23.8579 41.4253 21.8317 39.3991C19.8445 37.3339 18.8509 34.6454 18.8509 31.3333C18.8509 28.0213 19.8445 25.3522 21.8317 23.326C23.8579 21.2609 26.5075 20.2283 29.7806 20.2283C31.6899 20.2283 33.4043 20.6569 34.924 21.5142C36.3496 22.2626 37.4492 23.2718 38.2228 24.5419C38.295 24.6604 38.3643 24.7811 38.4308 24.9041L47.4902 19.7023C47.2584 19.3193 47.0152 18.9465 46.7606 18.5837C45.0464 16.1413 42.8154 14.1568 40.0674 12.6301C36.9112 10.8767 33.4823 10 29.7806 10C23.6241 10 18.5197 12.0457 14.4674 16.137C10.454 20.1893 8.44727 25.2548 8.44727 31.3333C8.44727 37.4119 10.454 42.4968 14.4674 46.5881C18.5197 50.6405 23.6241 52.6667 29.7806 52.6667C33.5212 52.6667 36.9502 51.8094 40.0674 50.095C42.8192 48.5662 45.0527 46.5634 46.7678 44.0867C47.0198 43.7228 47.2606 43.3487 47.4902 42.9644L38.4308 37.7041C38.321 37.9128 38.2034 38.1154 38.078 38.3117ZM46.667 34.6667C48.5079 34.6667 50.0003 33.1743 50.0003 31.3333C50.0003 29.4924 48.5079 28 46.667 28C44.826 28 43.3337 29.4924 43.3337 31.3333C43.3337 33.1743 44.826 34.6667 46.667 34.6667ZM51.3337 31.3333C51.3337 33.9107 49.2443 36 46.667 36C44.0897 36 42.0003 33.9107 42.0003 31.3333C42.0003 28.756 44.0897 26.6667 46.667 26.6667C49.2443 26.6667 51.3337 28.756 51.3337 31.3333Z" fill="#18191F"/>
<path fill-rule="evenodd" clip-rule="evenodd" d="M14.4674 45.2551C18.5197 49.3075 23.6241 51.3337 29.7806 51.3337C33.5212 51.3337 36.9502 50.4764 40.0674 48.762C43.2235 47.0085 45.6978 44.6317 47.4902 41.6314L38.4308 36.3711C37.6515 37.8518 36.4826 39.0207 34.924 39.878C33.4043 40.6962 31.6899 41.1053 29.7806 41.1053C26.5075 41.1053 23.8579 40.0923 21.8317 38.0661C19.8445 36.0009 18.8509 33.3124 18.8509 30.0003C18.8509 26.6883 19.8445 24.0192 21.8317 21.993C23.8579 19.9279 26.5075 18.8953 29.7806 18.8953C31.6899 18.8953 33.4043 19.3239 34.924 20.1811C36.4826 20.9994 37.6515 22.1294 38.4308 23.5711L47.4902 18.3693C45.6978 15.4079 43.2235 13.0506 40.0674 11.2971C36.9112 9.54371 33.4823 8.66699 29.7806 8.66699C23.6241 8.66699 18.5197 10.7127 14.4674 14.804C10.454 18.8563 8.44727 23.9218 8.44727 30.0003C8.44727 36.0789 10.454 41.1638 14.4674 45.2551ZM46.667 34.667C49.2443 34.667 51.3337 32.5777 51.3337 30.0003C51.3337 27.423 49.2443 25.3337 46.667 25.3337C44.0897 25.3337 42.0003 27.423 42.0003 30.0003C42.0003 32.5777 44.0897 34.667 46.667 34.667Z" fill="white"/>
<path fill-rule="evenodd" clip-rule="evenodd" d="M35.5613 41.0491L35.5561 41.0519C33.8222 41.9856 31.8866 42.4387 29.7806 42.4387C26.2086 42.4387 23.2013 41.3213 20.8889 39.0089L20.8799 38.9998L20.871 38.9906C18.6075 36.6383 17.5176 33.5993 17.5176 30.0003C17.5176 26.4019 18.6074 23.3763 20.8798 21.0594C23.1906 18.7042 26.2009 17.562 29.7806 17.562C31.8901 17.562 33.8279 18.0362 35.5615 19.01C36.9022 19.7168 38.0112 20.6414 38.8665 21.7834L45.5992 17.9176C44.0144 15.6914 41.9605 13.8742 39.4198 12.4627C36.4669 10.8222 33.2617 10.0003 29.7806 10.0003C23.9527 10.0003 19.1981 11.9225 15.4147 15.7423C11.666 19.5274 9.7806 24.2476 9.7806 30.0003C9.7806 35.7508 11.6647 40.4918 15.4146 44.3168C19.1964 48.0963 23.951 50.0003 29.7806 50.0003C33.3074 50.0003 36.5127 49.1947 39.4221 47.5952C41.9665 46.1812 44.0239 44.3451 45.6108 42.0819L38.8774 38.1722C38.0231 39.3471 36.9129 40.3058 35.5665 41.0462L35.5613 41.0491ZM38.078 36.9787C37.3142 38.1752 36.2629 39.1416 34.924 39.878C33.4043 40.6962 31.6899 41.1053 29.7806 41.1053C26.5075 41.1053 23.8579 40.0923 21.8317 38.0661C19.8445 36.0009 18.8509 33.3124 18.8509 30.0003C18.8509 26.6883 19.8445 24.0192 21.8317 21.993C23.8579 19.9279 26.5075 18.8953 29.7806 18.8953C31.6899 18.8953 33.4043 19.3239 34.924 20.1811C36.3496 20.9296 37.4492 21.9388 38.2228 23.2089C38.295 23.3273 38.3643 23.4481 38.4308 23.5711L47.4902 18.3693C47.2584 17.9863 47.0152 17.6135 46.7606 17.2507C45.0464 14.8083 42.8154 12.8238 40.0674 11.2971C36.9112 9.54371 33.4823 8.66699 29.7806 8.66699C23.6241 8.66699 18.5197 10.7127 14.4674 14.804C10.454 18.8563 8.44727 23.9218 8.44727 30.0003C8.44727 36.0789 10.454 41.1638 14.4674 45.2551C18.5197 49.3075 23.6241 51.3337 29.7806 51.3337C33.5212 51.3337 36.9502 50.4764 40.0674 48.762C42.8192 47.2332 45.0527 45.2304 46.7678 42.7537C47.0198 42.3898 47.2606 42.0157 47.4902 41.6314L38.4308 36.3711C38.321 36.5798 38.2034 36.7824 38.078 36.9787ZM46.667 33.3337C48.5079 33.3337 50.0003 31.8413 50.0003 30.0003C50.0003 28.1594 48.5079 26.667 46.667 26.667C44.826 26.667 43.3337 28.1594 43.3337 30.0003C43.3337 31.8413 44.826 33.3337 46.667 33.3337ZM51.3337 30.0003C51.3337 32.5777 49.2443 34.667 46.667 34.667C44.0897 34.667 42.0003 32.5777 42.0003 30.0003C42.0003 27.423 44.0897 25.3337 46.667 25.3337C49.2443 25.3337 51.3337 27.423 51.3337 30.0003Z" fill="#18191F"/>
</svg>
